<mxfile host="app.diagrams.net" agent="Mozilla/5.0 (Windows NT 10.0; Win64; x64) AppleWebKit/537.36 (KHTML, like Gecko) Chrome/133.0.0.0 Safari/537.36" version="26.0.14">
  <diagram name="PÃ¡gina-1" id="VIV1kLcWgOVQ2goj0ifY">
    <mxGraphModel dx="1500" dy="830" grid="1" gridSize="10" guides="1" tooltips="1" connect="1" arrows="1" fold="1" page="1" pageScale="1" pageWidth="827" pageHeight="1169" background="none" math="0" shadow="0">
      <root>
        <mxCell id="0" />
        <mxCell id="1" parent="0" />
        <mxCell id="wXICrKq2kcH-8_nUjY_8-1" value="Persona&amp;nbsp;" style="rounded=0;whiteSpace=wrap;html=1;" parent="1" vertex="1">
          <mxGeometry x="350" y="270" width="120" height="60" as="geometry" />
        </mxCell>
        <mxCell id="wXICrKq2kcH-8_nUjY_8-2" value="" style="rounded=0;whiteSpace=wrap;html=1;" parent="1" vertex="1">
          <mxGeometry x="350" y="270" width="120" height="60" as="geometry" />
        </mxCell>
        <mxCell id="wXICrKq2kcH-8_nUjY_8-24" style="edgeStyle=orthogonalEdgeStyle;rounded=0;orthogonalLoop=1;jettySize=auto;html=1;entryX=1;entryY=0.5;entryDx=0;entryDy=0;" parent="1" source="wXICrKq2kcH-8_nUjY_8-3" target="wXICrKq2kcH-8_nUjY_8-21" edge="1">
          <mxGeometry relative="1" as="geometry" />
        </mxCell>
        <mxCell id="wXICrKq2kcH-8_nUjY_8-25" style="edgeStyle=orthogonalEdgeStyle;rounded=0;orthogonalLoop=1;jettySize=auto;html=1;entryX=0.5;entryY=1;entryDx=0;entryDy=0;" parent="1" source="wXICrKq2kcH-8_nUjY_8-3" target="wXICrKq2kcH-8_nUjY_8-22" edge="1">
          <mxGeometry relative="1" as="geometry" />
        </mxCell>
        <mxCell id="wXICrKq2kcH-8_nUjY_8-26" style="edgeStyle=orthogonalEdgeStyle;rounded=0;orthogonalLoop=1;jettySize=auto;html=1;" parent="1" source="wXICrKq2kcH-8_nUjY_8-3" target="wXICrKq2kcH-8_nUjY_8-23" edge="1">
          <mxGeometry relative="1" as="geometry" />
        </mxCell>
        <mxCell id="wXICrKq2kcH-8_nUjY_8-27" style="edgeStyle=orthogonalEdgeStyle;rounded=0;orthogonalLoop=1;jettySize=auto;html=1;" parent="1" source="wXICrKq2kcH-8_nUjY_8-3" target="wXICrKq2kcH-8_nUjY_8-19" edge="1">
          <mxGeometry relative="1" as="geometry" />
        </mxCell>
        <mxCell id="wXICrKq2kcH-8_nUjY_8-50" style="edgeStyle=orthogonalEdgeStyle;rounded=0;orthogonalLoop=1;jettySize=auto;html=1;entryX=0;entryY=0.5;entryDx=0;entryDy=0;" parent="1" source="wXICrKq2kcH-8_nUjY_8-51" target="wXICrKq2kcH-8_nUjY_8-43" edge="1">
          <mxGeometry relative="1" as="geometry" />
        </mxCell>
        <mxCell id="wXICrKq2kcH-8_nUjY_8-58" style="edgeStyle=orthogonalEdgeStyle;rounded=0;orthogonalLoop=1;jettySize=auto;html=1;entryX=0;entryY=0.5;entryDx=0;entryDy=0;" parent="1" source="wXICrKq2kcH-8_nUjY_8-3" target="wXICrKq2kcH-8_nUjY_8-57" edge="1">
          <mxGeometry relative="1" as="geometry" />
        </mxCell>
        <mxCell id="wXICrKq2kcH-8_nUjY_8-3" value="Persona" style="rounded=0;whiteSpace=wrap;html=1;" parent="1" vertex="1">
          <mxGeometry x="350" y="270" width="120" height="60" as="geometry" />
        </mxCell>
        <mxCell id="wXICrKq2kcH-8_nUjY_8-19" value="Nombre" style="ellipse;whiteSpace=wrap;html=1;" parent="1" vertex="1">
          <mxGeometry x="307.5" y="130" width="80" height="40" as="geometry" />
        </mxCell>
        <mxCell id="wXICrKq2kcH-8_nUjY_8-20" value="apellido" style="ellipse;whiteSpace=wrap;html=1;" parent="1" vertex="1">
          <mxGeometry x="240" y="200" width="85" height="40" as="geometry" />
        </mxCell>
        <mxCell id="wXICrKq2kcH-8_nUjY_8-21" value="edad&lt;span style=&quot;color: rgba(0, 0, 0, 0); font-family: monospace; font-size: 0px; text-align: start; text-wrap-mode: nowrap;&quot;&gt;%3CmxGraphModel%3E%3Croot%3E%3CmxCell%20id%3D%220%22%2F%3E%3CmxCell%20id%3D%221%22%20parent%3D%220%22%2F%3E%3CmxCell%20id%3D%222%22%20value%3D%221-1%22%20style%3D%22text%3Bhtml%3D1%3Balign%3Dcenter%3BverticalAlign%3Dmiddle%3BwhiteSpace%3Dwrap%3Brounded%3D0%3B%22%20vertex%3D%221%22%20parent%3D%221%22%3E%3CmxGeometry%20x%3D%22245%22%20y%3D%22235%22%20width%3D%2260%22%20height%3D%2230%22%20as%3D%22geometry%22%2F%3E%3C%2FmxCell%3E%3C%2Froot%3E%3C%2FmxGraphModel%3E&lt;/span&gt;" style="ellipse;whiteSpace=wrap;html=1;" parent="1" vertex="1">
          <mxGeometry x="200" y="280" width="66" height="40" as="geometry" />
        </mxCell>
        <mxCell id="wXICrKq2kcH-8_nUjY_8-22" value="genero" style="ellipse;whiteSpace=wrap;html=1;" parent="1" vertex="1">
          <mxGeometry x="380" y="60" width="60" height="30" as="geometry" />
        </mxCell>
        <mxCell id="wXICrKq2kcH-8_nUjY_8-23" value="Celular" style="ellipse;whiteSpace=wrap;html=1;" parent="1" vertex="1">
          <mxGeometry x="450" y="70" width="70" height="50" as="geometry" />
        </mxCell>
        <mxCell id="wXICrKq2kcH-8_nUjY_8-28" style="edgeStyle=orthogonalEdgeStyle;rounded=0;orthogonalLoop=1;jettySize=auto;html=1;entryX=0.5;entryY=1;entryDx=0;entryDy=0;" parent="1" source="wXICrKq2kcH-8_nUjY_8-3" target="wXICrKq2kcH-8_nUjY_8-20" edge="1">
          <mxGeometry relative="1" as="geometry" />
        </mxCell>
        <mxCell id="wXICrKq2kcH-8_nUjY_8-37" style="edgeStyle=orthogonalEdgeStyle;rounded=0;orthogonalLoop=1;jettySize=auto;html=1;entryX=0;entryY=0.5;entryDx=0;entryDy=0;" parent="1" source="wXICrKq2kcH-8_nUjY_8-29" target="wXICrKq2kcH-8_nUjY_8-35" edge="1">
          <mxGeometry relative="1" as="geometry" />
        </mxCell>
        <mxCell id="wXICrKq2kcH-8_nUjY_8-38" style="edgeStyle=orthogonalEdgeStyle;rounded=0;orthogonalLoop=1;jettySize=auto;html=1;entryX=0.5;entryY=1;entryDx=0;entryDy=0;" parent="1" source="wXICrKq2kcH-8_nUjY_8-29" target="wXICrKq2kcH-8_nUjY_8-34" edge="1">
          <mxGeometry relative="1" as="geometry" />
        </mxCell>
        <mxCell id="wXICrKq2kcH-8_nUjY_8-39" style="edgeStyle=orthogonalEdgeStyle;rounded=0;orthogonalLoop=1;jettySize=auto;html=1;entryX=0.5;entryY=0;entryDx=0;entryDy=0;exitX=0.5;exitY=1;exitDx=0;exitDy=0;" parent="1" source="wXICrKq2kcH-8_nUjY_8-29" target="wXICrKq2kcH-8_nUjY_8-36" edge="1">
          <mxGeometry relative="1" as="geometry" />
        </mxCell>
        <mxCell id="wXICrKq2kcH-8_nUjY_8-60" style="edgeStyle=orthogonalEdgeStyle;rounded=0;orthogonalLoop=1;jettySize=auto;html=1;entryX=0.5;entryY=1;entryDx=0;entryDy=0;exitX=0.5;exitY=0;exitDx=0;exitDy=0;" parent="1" source="wXICrKq2kcH-8_nUjY_8-29" target="wXICrKq2kcH-8_nUjY_8-55" edge="1">
          <mxGeometry relative="1" as="geometry">
            <mxPoint x="254" y="720.0666666666666" as="sourcePoint" />
            <mxPoint x="790" y="470" as="targetPoint" />
            <Array as="points">
              <mxPoint x="870" y="540" />
              <mxPoint x="870" y="540" />
            </Array>
          </mxGeometry>
        </mxCell>
        <mxCell id="wXICrKq2kcH-8_nUjY_8-62" style="edgeStyle=orthogonalEdgeStyle;rounded=0;orthogonalLoop=1;jettySize=auto;html=1;entryX=0.5;entryY=1;entryDx=0;entryDy=0;" parent="1" source="wXICrKq2kcH-8_nUjY_8-29" target="wXICrKq2kcH-8_nUjY_8-31" edge="1">
          <mxGeometry relative="1" as="geometry" />
        </mxCell>
        <mxCell id="wXICrKq2kcH-8_nUjY_8-29" value="Profesor" style="rounded=0;whiteSpace=wrap;html=1;" parent="1" vertex="1">
          <mxGeometry x="810" y="640" width="120" height="60" as="geometry" />
        </mxCell>
        <mxCell id="wXICrKq2kcH-8_nUjY_8-32" style="edgeStyle=orthogonalEdgeStyle;rounded=0;orthogonalLoop=1;jettySize=auto;html=1;entryX=0.5;entryY=1;entryDx=0;entryDy=0;" parent="1" source="wXICrKq2kcH-8_nUjY_8-31" target="wXICrKq2kcH-8_nUjY_8-3" edge="1">
          <mxGeometry relative="1" as="geometry" />
        </mxCell>
        <mxCell id="wXICrKq2kcH-8_nUjY_8-31" value="Relacion" style="rhombus;whiteSpace=wrap;html=1;" parent="1" vertex="1">
          <mxGeometry x="370" y="405" width="80" height="80" as="geometry" />
        </mxCell>
        <mxCell id="wXICrKq2kcH-8_nUjY_8-34" value="code" style="ellipse;whiteSpace=wrap;html=1;" parent="1" vertex="1">
          <mxGeometry x="905" y="800" width="80" height="50" as="geometry" />
        </mxCell>
        <mxCell id="wXICrKq2kcH-8_nUjY_8-35" value="&amp;nbsp;Correo cor" style="ellipse;whiteSpace=wrap;html=1;" parent="1" vertex="1">
          <mxGeometry x="1060" y="645" width="70" height="50" as="geometry" />
        </mxCell>
        <mxCell id="wXICrKq2kcH-8_nUjY_8-36" value="Rol&lt;br&gt;profesor" style="ellipse;whiteSpace=wrap;html=1;" parent="1" vertex="1">
          <mxGeometry x="1060" y="770" width="70" height="50" as="geometry" />
        </mxCell>
        <mxCell id="wXICrKq2kcH-8_nUjY_8-40" value="1-1" style="text;html=1;align=center;verticalAlign=middle;whiteSpace=wrap;rounded=0;" parent="1" vertex="1">
          <mxGeometry x="317.5" y="430" width="60" height="30" as="geometry" />
        </mxCell>
        <mxCell id="wXICrKq2kcH-8_nUjY_8-47" style="edgeStyle=orthogonalEdgeStyle;rounded=0;orthogonalLoop=1;jettySize=auto;html=1;" parent="1" source="wXICrKq2kcH-8_nUjY_8-43" target="wXICrKq2kcH-8_nUjY_8-46" edge="1">
          <mxGeometry relative="1" as="geometry" />
        </mxCell>
        <mxCell id="wXICrKq2kcH-8_nUjY_8-48" style="edgeStyle=orthogonalEdgeStyle;rounded=0;orthogonalLoop=1;jettySize=auto;html=1;entryX=0.5;entryY=1;entryDx=0;entryDy=0;" parent="1" source="wXICrKq2kcH-8_nUjY_8-43" target="wXICrKq2kcH-8_nUjY_8-44" edge="1">
          <mxGeometry relative="1" as="geometry" />
        </mxCell>
        <mxCell id="wXICrKq2kcH-8_nUjY_8-49" style="edgeStyle=orthogonalEdgeStyle;rounded=0;orthogonalLoop=1;jettySize=auto;html=1;entryX=0.5;entryY=1;entryDx=0;entryDy=0;" parent="1" source="wXICrKq2kcH-8_nUjY_8-43" target="wXICrKq2kcH-8_nUjY_8-45" edge="1">
          <mxGeometry relative="1" as="geometry" />
        </mxCell>
        <mxCell id="wXICrKq2kcH-8_nUjY_8-43" value="Estduiante" style="rounded=0;whiteSpace=wrap;html=1;" parent="1" vertex="1">
          <mxGeometry x="800" y="250" width="140" height="60" as="geometry" />
        </mxCell>
        <mxCell id="wXICrKq2kcH-8_nUjY_8-44" value="&amp;nbsp;Correo cor" style="ellipse;whiteSpace=wrap;html=1;" parent="1" vertex="1">
          <mxGeometry x="930" y="130" width="70" height="50" as="geometry" />
        </mxCell>
        <mxCell id="wXICrKq2kcH-8_nUjY_8-45" value="Code" style="ellipse;whiteSpace=wrap;html=1;" parent="1" vertex="1">
          <mxGeometry x="835" y="100" width="70" height="50" as="geometry" />
        </mxCell>
        <mxCell id="wXICrKq2kcH-8_nUjY_8-46" value="Rol estudiante" style="ellipse;whiteSpace=wrap;html=1;" parent="1" vertex="1">
          <mxGeometry x="1040" y="255" width="70" height="50" as="geometry" />
        </mxCell>
        <mxCell id="wXICrKq2kcH-8_nUjY_8-52" value="" style="edgeStyle=orthogonalEdgeStyle;rounded=0;orthogonalLoop=1;jettySize=auto;html=1;entryX=0;entryY=0.5;entryDx=0;entryDy=0;" parent="1" source="wXICrKq2kcH-8_nUjY_8-3" target="wXICrKq2kcH-8_nUjY_8-51" edge="1">
          <mxGeometry relative="1" as="geometry">
            <mxPoint x="470" y="300" as="sourcePoint" />
            <mxPoint x="790" y="270" as="targetPoint" />
            <Array as="points">
              <mxPoint x="540" y="280" />
              <mxPoint x="540" y="280" />
            </Array>
          </mxGeometry>
        </mxCell>
        <mxCell id="wXICrKq2kcH-8_nUjY_8-51" value="Relacion" style="rhombus;whiteSpace=wrap;html=1;" parent="1" vertex="1">
          <mxGeometry x="610" y="240" width="80" height="80" as="geometry" />
        </mxCell>
        <mxCell id="wXICrKq2kcH-8_nUjY_8-53" value="1-1" style="text;html=1;align=center;verticalAlign=middle;whiteSpace=wrap;rounded=0;" parent="1" vertex="1">
          <mxGeometry x="600" y="200" width="60" height="30" as="geometry" />
        </mxCell>
        <mxCell id="wXICrKq2kcH-8_nUjY_8-61" style="edgeStyle=orthogonalEdgeStyle;rounded=0;orthogonalLoop=1;jettySize=auto;html=1;entryX=0.5;entryY=1;entryDx=0;entryDy=0;" parent="1" source="wXICrKq2kcH-8_nUjY_8-55" target="wXICrKq2kcH-8_nUjY_8-43" edge="1">
          <mxGeometry relative="1" as="geometry" />
        </mxCell>
        <mxCell id="wXICrKq2kcH-8_nUjY_8-55" value="Relacion" style="rhombus;whiteSpace=wrap;html=1;" parent="1" vertex="1">
          <mxGeometry x="830" y="430" width="80" height="80" as="geometry" />
        </mxCell>
        <mxCell id="wXICrKq2kcH-8_nUjY_8-56" value="n-m" style="text;html=1;align=center;verticalAlign=middle;whiteSpace=wrap;rounded=0;" parent="1" vertex="1">
          <mxGeometry x="767" y="455" width="60" height="30" as="geometry" />
        </mxCell>
        <mxCell id="wXICrKq2kcH-8_nUjY_8-57" value="Telefono" style="ellipse;whiteSpace=wrap;html=1;" parent="1" vertex="1">
          <mxGeometry x="470" y="210" width="60" height="40" as="geometry" />
        </mxCell>
      </root>
    </mxGraphModel>
  </diagram>
</mxfile>
